# xmcd
#
# Track frame offsets:
#	150
#	26013
#	38541
#	55062
#	69653
#	84937
#	102465
#	119509
#
# Disc length: 1834 seconds
# Revision: 0
# Processed by: cddbd v1.5.2PL0 Copyright (c) Steve Scherf et al.
# Submitted via: dBpowerAMP V12.0
#
DISCID=62072808
DTITLE=Sage Keffer - Rules of the Game
DYEAR=2005
DGENRE=Country
TTITLE0=Foldin' Money
TTITLE1=727 East Magnolia Avenue
TTITLE2=Again
TTITLE3=I Said I Love You
TTITLE4=All I Want
TTITLE5=I'll String Along
TTITLE6=I See You
TTITLE7=Hello Again
EXTD=
EXTT0=
EXTT1=
EXTT2=
EXTT3=
EXTT4=
EXTT5=
EXTT6=
EXTT7=
PLAYORDER=
